<svg xmlns="http://www.w3.org/2000/svg" viewBox="0 0 100 100" fill="#241F21"><g transform="translate(-4.90, -21.09) scale(0.1075)"><g transform="translate(0.000000,900.000000) scale(0.100000,-0.100000)"><path d="M4980 4254 c-69 -8 -170 -20 -225 -26 -55 -6 -115 -17 -134 -24 -18 -8 -46 -14 -61 -14 -15 0 -91 -13 -168 -30 -78 -16 -157 -30 -176 -30 -49 0 -158 -27 -219 -54 -29 -12 -83 -30 -122 -40 -38 -9 -90 -29 -115 -44 -50 -30 -85 -50 -145 -83 -22 -12 -53 -31 -70 -44 -16 -12 -50 -32 -75 -45 -46 -23 -109 -74 -183 -146 -23 -23 -52 -47 -64 -53 -29 -15 -107 -118 -151 -200 -19 -36 -48 -91 -64 -121 -16 -30 -36 -66 -44 -80 -7 -14 -14 -35 -14 -47 0 -13 -9 -55 -20 -95 -57 -212 -58 -327 -5 -536 45 -176 64 -217 197 -420 66 -102 301 -322 344 -322 7 0 33 -16 58 -35 25 -19 66 -44 91 -56 24 -11 49 -27 56 -35 6 -8 17 -14 24 -14 6 0 43 -17 81 -37 51 -27 116 -47 254 -80 102 -24 219 -52 260 -63 116 -30 326 -71 420 -81 197 -22 804 -4 873 25 17 8 69 19 115 25 84 10 264 49 357 76 28 8 76 17 108 20 92 10 316 103 391 163 16 12 33 22 39 22 6 0 24 11 41 24 17 12 47 31 66 41 19 10 79 57 134 104 54 47 117 100 140 118 131 100 313 442 352 661 69 388 -59 767 -356 1060 -65 63 -216 169 -388 271 -59 34 -156 72 -252 98 -30 8 -98 26 -150 39 -52 14 -108 30 -125 35 -250 75 -762 110 -1075 73z"/><path d="M4999 1241 c-303 -98 -496 -268 -579 -510 -43 -126 -47 -219 -10 -238 31 -16 1582 -19 1624 -3 14 5 28 20 31 32 7 29 -21 173 -40 202 -7 12 -19 40 -26 63 -26 90 -222 293 -340 353 -24 13 -59 36 -77 51 -18 16 -45 31 -60 34 -15 3 -49 13 -77 22 -35 12 -96 17 -205 20 -147 2 -160 1 -241 -26z"/></g></g></svg>
